<?xml version="1.0" encoding="UTF-8" standalone="no"?>
<!-- Created with Inkscape (http://www.inkscape.org/) -->

<svg
   width="80.977966mm"
   height="102.41745mm"
   viewBox="0 0 80.977966 102.41745"
   version="1.1"
   id="svg5"
   inkscape:version="1.1.2 (0a00cf5339, 2022-02-04, custom)"
   sodipodi:docname="nofacsimage.svg"
   xmlns:inkscape="http://www.inkscape.org/namespaces/inkscape"
   xmlns:sodipodi="http://sodipodi.sourceforge.net/DTD/sodipodi-0.dtd"
   xmlns="http://www.w3.org/2000/svg"
   xmlns:svg="http://www.w3.org/2000/svg">
  <sodipodi:namedview
     id="namedview7"
     pagecolor="#ffffff"
     bordercolor="#666666"
     borderopacity="1.0"
     inkscape:pageshadow="2"
     inkscape:pageopacity="0.0"
     inkscape:pagecheckerboard="0"
     inkscape:document-units="mm"
     showgrid="false"
     fit-margin-top="0"
     fit-margin-left="0"
     fit-margin-right="0"
     fit-margin-bottom="0"
     inkscape:zoom="0.8391835"
     inkscape:cx="291.35463"
     inkscape:cy="11.320528"
     inkscape:window-width="2560"
     inkscape:window-height="1361"
     inkscape:window-x="-9"
     inkscape:window-y="-9"
     inkscape:window-maximized="1"
     inkscape:current-layer="text3335" />
  <defs
     id="defs2">
    <rect
       x="20.257786"
       y="146.57104"
       width="260.96795"
       height="96.522393"
       id="rect4046" />
  </defs>
  <g
     inkscape:label="Ebene 1"
     inkscape:groupmode="layer"
     id="layer1"
     transform="translate(-21.307198,-107.69574)">
    <path
       id="rect31"
       style="fill:none;fill-rule:evenodd;stroke:#000000;stroke-width:0.264583"
       d="M 21.439489,107.82803 H 102.15287 V 209.9809 H 21.439489 Z" />
    <g
       aria-label="Kein Bild verfügbar"
       transform="scale(0.9905369,1.0095535)"
       id="text3335"
       style="font-size:6.6243px;line-height:1.25;stroke-width:0.165608">
      <g
         aria-label="Bild derzeit nicht vorhanden"
         transform="matrix(0.26711103,0,0,0.26207956,21.510756,106.67661)"
         id="text4044"
         style="font-size:29.3333px;white-space:pre;shape-inside:url(#rect4046)">
        <path
           d="m 23.122393,152.39189 h 5.92968 q 3.924475,0 5.901035,1.17448 1.97656,1.17448 1.97656,3.99609 0,1.21744 -0.472655,2.1914 -0.458333,0.95964 -1.346353,1.58984 -0.88802,0.63021 -2.191404,0.8737 v 0.14323 q 1.374999,0.21484 2.434893,0.78776 1.059895,0.57292 1.661457,1.60416 0.601562,1.03125 0.601562,2.62109 0,1.9336 -0.902343,3.26563 -0.88802,1.33203 -2.520831,2.01952 -1.63281,0.67318 -3.867183,0.67318 h -7.204418 z m 2.434893,8.98046 h 4.010412 q 2.735674,0 3.781245,-0.90234 1.059895,-0.90235 1.059895,-2.63542 0,-1.79036 -1.260415,-2.57812 -1.246093,-0.78776 -3.981767,-0.78776 h -3.60937 z m 0,2.04817 v 7.83463 h 4.354161 q 2.792966,0 3.953121,-1.08854 1.160155,-1.10286 1.160155,-2.96484 0,-1.1888 -0.529948,-2.03385 -0.515624,-0.84505 -1.690102,-1.28906 -1.160155,-0.45834 -3.108069,-0.45834 z"
           style="font-family:'Open Sans';-inkscape-font-specification:'Open Sans'"
           id="path14776" />
        <path
           d="m 44.091119,157.63407 v 15.6979 h -2.377601 v -15.6979 z m -1.160155,-5.87239 q 0.587239,0 1.002603,0.38672 0.429687,0.3724 0.429687,1.17448 0,0.78776 -0.429687,1.17448 -0.415364,0.38672 -1.002603,0.38672 -0.615884,0 -1.031248,-0.38672 -0.401042,-0.38672 -0.401042,-1.17448 0,-0.80208 0.401042,-1.17448 0.415364,-0.38672 1.031248,-0.38672 z"
           style="font-family:'Open Sans';-inkscape-font-specification:'Open Sans'"
           id="path14778" />
        <path
           d="m 51.510382,173.33197 h -2.391925 v -22.28643 h 2.391925 z"
           style="font-family:'Open Sans';-inkscape-font-specification:'Open Sans'"
           id="path14780" />
        <path
           d="m 62.109326,173.61843 q -2.979163,0 -4.726557,-2.03385 -1.733071,-2.03385 -1.733071,-6.04427 0,-4.05338 1.77604,-6.11588 1.77604,-2.07682 4.726557,-2.07682 1.246092,0 2.177081,0.32943 0.930988,0.32943 1.604165,0.88802 0.673176,0.54427 1.131509,1.24609 h 0.171875 q -0.05729,-0.44401 -0.114584,-1.21744 -0.05729,-0.77344 -0.05729,-1.26042 v -6.28775 h 2.377601 v 22.28643 H 67.523383 L 67.16531,171.0976 h -0.10026 q -0.44401,0.70182 -1.131509,1.27474 -0.673177,0.57291 -1.618488,0.91666 -0.930989,0.32943 -2.205727,0.32943 z m 0.372396,-1.97656 q 2.52083,0 3.566402,-1.43229 1.045572,-1.43229 1.045572,-4.2539 v -0.42969 q 0,-2.99349 -1.002603,-4.59765 -0.988281,-1.60417 -3.609371,-1.60417 -2.191404,0 -3.279944,1.69011 -1.088541,1.67578 -1.088541,4.58332 0,2.89323 1.074218,4.46875 1.08854,1.57552 3.294267,1.57552 z"
           style="font-family:'Open Sans';-inkscape-font-specification:'Open Sans'"
           id="path14782" />
        <path
           d="m 87.675706,173.61843 q -2.979163,0 -4.726557,-2.03385 -1.733071,-2.03385 -1.733071,-6.04427 0,-4.05338 1.776039,-6.11588 1.77604,-2.07682 4.726558,-2.07682 1.246092,0 2.17708,0.32943 0.930989,0.32943 1.604165,0.88802 0.673176,0.54427 1.131509,1.24609 h 0.171875 q -0.05729,-0.44401 -0.114583,-1.21744 -0.05729,-0.77344 -0.05729,-1.26042 v -6.28775 h 2.377602 v 22.28643 H 93.089762 L 92.73169,171.0976 h -0.100261 q -0.44401,0.70182 -1.131509,1.27474 -0.673176,0.57291 -1.618488,0.91666 -0.930988,0.32943 -2.205726,0.32943 z m 0.372395,-1.97656 q 2.520831,0 3.566402,-1.43229 1.045572,-1.43229 1.045572,-4.2539 v -0.42969 q 0,-2.99349 -1.002603,-4.59765 -0.98828,-1.60417 -3.609371,-1.60417 -2.191403,0 -3.279944,1.69011 -1.08854,1.67578 -1.08854,4.58332 0,2.89323 1.074217,4.46875 1.088541,1.57552 3.294267,1.57552 z"
           style="font-family:'Open Sans';-inkscape-font-specification:'Open Sans'"
           id="path14784" />
        <path
           d="m 106.08063,157.34761 q 2.00521,0 3.4375,0.88802 1.43229,0.88802 2.1914,2.49219 0.75912,1.58984 0.75912,3.72395 v 1.47526 h -10.84244 q 0.043,2.76432 1.375,4.21093 1.33203,1.44662 3.7526,1.44662 1.48958,0 2.63541,-0.27214 1.14583,-0.27213 2.3776,-0.80208 v 2.09114 q -1.1888,0.52995 -2.36327,0.77344 -1.16016,0.24349 -2.75,0.24349 -2.26302,0 -3.95312,-0.91667 -1.67578,-0.93099 -2.60677,-2.72135 -0.930988,-1.79036 -0.930988,-4.38281 0,-2.53515 0.845048,-4.3828 0.85938,-1.86198 2.40625,-2.86458 1.5612,-1.00261 3.66666,-1.00261 z m -0.0286,1.94792 q -1.90495,0 -3.03646,1.24609 -1.13151,1.24609 -1.34635,3.48047 h 8.30728 q -0.0143,-1.40365 -0.44401,-2.46354 -0.41536,-1.07422 -1.27474,-1.66146 -0.85937,-0.60156 -2.20572,-0.60156 z"
           style="font-family:'Open Sans';-inkscape-font-specification:'Open Sans'"
           id="path14786" />
        <path
           d="m 123.64051,157.34761 q 0.47266,0 0.98828,0.0573 0.51562,0.043 0.91667,0.1289 l -0.30079,2.20573 q -0.38671,-0.10026 -0.85937,-0.15755 -0.47266,-0.0573 -0.88802,-0.0573 -0.94531,0 -1.79036,0.38671 -0.83073,0.3724 -1.46094,1.08854 -0.63021,0.70183 -0.98828,1.70443 -0.35807,0.98828 -0.35807,2.20573 v 8.42186 h -2.39192 v -15.6979 h 1.97656 l 0.25781,2.89323 h 0.10026 q 0.48698,-0.8737 1.17448,-1.58984 0.6875,-0.73047 1.58984,-1.16016 0.91666,-0.42969 2.03385,-0.42969 z"
           style="font-family:'Open Sans';-inkscape-font-specification:'Open Sans'"
           id="path14788" />
        <path
           d="M 138.57929,173.33197 H 127.1353 v -1.57552 l 8.60806,-12.2604 h -8.06379 v -1.86198 h 10.71353 v 1.76172 l -8.49348,12.08853 h 8.67967 z"
           style="font-family:'Open Sans';-inkscape-font-specification:'Open Sans'"
           id="path14790" />
        <path
           d="m 148.29022,157.34761 q 2.00521,0 3.4375,0.88802 1.43229,0.88802 2.1914,2.49219 0.75911,1.58984 0.75911,3.72395 v 1.47526 H 143.8358 q 0.043,2.76432 1.375,4.21093 1.33203,1.44662 3.7526,1.44662 1.48958,0 2.63541,-0.27214 1.14583,-0.27213 2.3776,-0.80208 v 2.09114 q -1.1888,0.52995 -2.36328,0.77344 -1.16015,0.24349 -2.74999,0.24349 -2.26302,0 -3.95312,-0.91667 -1.67578,-0.93099 -2.60677,-2.72135 -0.93099,-1.79036 -0.93099,-4.38281 0,-2.53515 0.84505,-4.3828 0.85937,-1.86198 2.40625,-2.86458 1.56119,-1.00261 3.66666,-1.00261 z m -0.0286,1.94792 q -1.90494,0 -3.03645,1.24609 -1.13151,1.24609 -1.34635,3.48047 h 8.30728 q -0.0143,-1.40365 -0.44401,-2.46354 -0.41537,-1.07422 -1.27474,-1.66146 -0.85937,-0.60156 -2.20573,-0.60156 z"
           style="font-family:'Open Sans';-inkscape-font-specification:'Open Sans'"
           id="path14792" />
        <path
           d="m 161.09489,157.63407 v 15.6979 h -2.3776 v -15.6979 z m -1.16015,-5.87239 q 0.58724,0 1.0026,0.38672 0.42969,0.3724 0.42969,1.17448 0,0.78776 -0.42969,1.17448 -0.41536,0.38672 -1.0026,0.38672 -0.61589,0 -1.03125,-0.38672 -0.40104,-0.38672 -0.40104,-1.17448 0,-0.80208 0.40104,-1.17448 0.41536,-0.38672 1.03125,-0.38672 z"
           style="font-family:'Open Sans';-inkscape-font-specification:'Open Sans'"
           id="path14794" />
        <path
           d="m 171.19254,171.67051 q 0.58724,0 1.20312,-0.10026 0.61589,-0.10026 1.0026,-0.24348 v 1.84765 q -0.41536,0.1862 -1.16015,0.3151 -0.73047,0.12891 -1.43229,0.12891 -1.24609,0 -2.26302,-0.42969 -1.01693,-0.44401 -1.63281,-1.48958 -0.60156,-1.04557 -0.60156,-2.89323 v -9.30988 h -2.23437 v -1.16016 l 2.24869,-0.93098 0.94531,-3.40885 h 1.43229 v 3.63801 h 4.59765 v 1.86198 h -4.59765 v 9.23827 q 0,1.47526 0.67318,2.20573 0.6875,0.73046 1.81901,0.73046 z"
           style="font-family:'Open Sans';-inkscape-font-specification:'Open Sans'"
           id="path14796" />
        <path
           d="m 191.63132,157.34761 q 2.79296,0 4.22525,1.375 1.43229,1.36068 1.43229,4.38281 v 10.22655 h -2.34895 v -10.069 q 0,-1.96224 -0.90235,-2.93619 -0.88802,-0.97396 -2.73567,-0.97396 -2.60677,0 -3.66666,1.47526 -1.0599,1.47526 -1.0599,4.28255 v 8.22134 h -2.3776 v -15.6979 h 1.91927 l 0.35807,2.26302 h 0.12891 q 0.5013,-0.83073 1.27474,-1.38932 0.77343,-0.57292 1.73307,-0.85937 0.95963,-0.30079 2.01953,-0.30079 z"
           style="font-family:'Open Sans';-inkscape-font-specification:'Open Sans'"
           id="path14798" />
        <path
           d="m 204.5649,157.63407 v 15.6979 h -2.37761 v -15.6979 z m -1.16016,-5.87239 q 0.58724,0 1.0026,0.38672 0.42969,0.3724 0.42969,1.17448 0,0.78776 -0.42969,1.17448 -0.41536,0.38672 -1.0026,0.38672 -0.61588,0 -1.03125,-0.38672 -0.40104,-0.38672 -0.40104,-1.17448 0,-0.80208 0.40104,-1.17448 0.41537,-0.38672 1.03125,-0.38672 z"
           style="font-family:'Open Sans';-inkscape-font-specification:'Open Sans'"
           id="path14800" />
        <path
           d="m 215.87998,173.61843 q -2.11978,0 -3.73827,-0.8737 -1.61849,-0.87369 -2.52083,-2.66406 -0.90235,-1.79036 -0.90235,-4.51171 0,-2.85026 0.94532,-4.65494 0.95963,-1.81901 2.63541,-2.69271 1.67578,-0.8737 3.80989,-0.8737 1.17448,0 2.26302,0.24349 1.10286,0.22917 1.80468,0.58724 l -0.71614,1.99089 q -0.71615,-0.28646 -1.66146,-0.51563 -0.93099,-0.22917 -1.74739,-0.22917 -1.63281,0 -2.72135,0.70183 -1.07422,0.70182 -1.61849,2.06249 -0.52995,1.36068 -0.52995,3.35156 0,1.90495 0.51563,3.2513 0.52995,1.34635 1.56119,2.0625 1.04558,0.70182 2.60677,0.70182 1.24609,0 2.2487,-0.25781 1.0026,-0.27214 1.81901,-0.63021 v 2.11979 q -0.78776,0.40104 -1.76172,0.61589 -0.95964,0.21484 -2.29167,0.21484 z"
           style="font-family:'Open Sans';-inkscape-font-specification:'Open Sans'"
           id="path14802" />
        <path
           d="m 226.0206,151.04554 v 6.66015 q 0,0.57291 -0.0286,1.16015 -0.0286,0.57292 -0.10026,1.0599 h 0.15755 q 0.48698,-0.83073 1.23177,-1.38932 0.75912,-0.57292 1.71875,-0.85938 0.95964,-0.30078 2.03385,-0.30078 1.89063,0 3.15104,0.60156 1.27474,0.60156 1.90495,1.86198 0.64453,1.26041 0.64453,3.26562 v 10.22655 h -2.34896 v -10.069 q 0,-1.96224 -0.90234,-2.93619 -0.88802,-0.97396 -2.73567,-0.97396 -1.7474,0 -2.79297,0.67318 -1.03125,0.65885 -1.48958,1.94791 -0.44401,1.28906 -0.44401,3.15104 v 8.20702 h -2.3776 v -22.28643 z"
           style="font-family:'Open Sans';-inkscape-font-specification:'Open Sans'"
           id="path14804" />
        <path
           d="m 246.70287,171.67051 q 0.58724,0 1.20312,-0.10026 0.61589,-0.10026 1.0026,-0.24348 v 1.84765 q -0.41536,0.1862 -1.16015,0.3151 -0.73047,0.12891 -1.43229,0.12891 -1.24609,0 -2.26302,-0.42969 -1.01693,-0.44401 -1.63281,-1.48958 -0.60156,-1.04557 -0.60156,-2.89323 v -9.30988 h -2.23437 v -1.16016 l 2.24869,-0.93098 0.94531,-3.40885 h 1.43229 v 3.63801 h 4.59765 v 1.86198 h -4.59765 v 9.23827 q 0,1.47526 0.67318,2.20573 0.6875,0.73046 1.81901,0.73046 z"
           style="font-family:'Open Sans';-inkscape-font-specification:'Open Sans'"
           id="path14806" />
        <path
           d="m 26.216139,210.07079 -5.958327,-15.6979 h 2.549477 l 3.451819,9.49608 q 0.358072,0.97396 0.730468,2.14844 0.372395,1.17447 0.515624,1.89062 h 0.10026 q 0.171875,-0.71615 0.572916,-1.89062 0.401042,-1.18881 0.730468,-2.14844 l 3.451819,-9.49608 h 2.549476 l -5.972649,15.6979 z"
           style="font-family:'Open Sans';-inkscape-font-specification:'Open Sans'"
           id="path14808" />
        <path
           d="m 50.951787,202.19319 q 0,1.93359 -0.501301,3.45182 -0.501302,1.51823 -1.446613,2.5638 -0.945312,1.04557 -2.291664,1.60416 -1.33203,0.54427 -3.022132,0.54427 -1.575519,0 -2.893226,-0.54427 -1.303384,-0.55859 -2.263018,-1.60416 -0.945312,-1.04557 -1.475259,-2.5638 -0.515624,-1.51823 -0.515624,-3.45182 0,-2.57812 0.873697,-4.38281 0.873697,-1.819 2.492184,-2.76432 1.632811,-0.95963 3.881506,-0.95963 2.148435,0 3.7526,0.95963 1.618488,0.95964 2.506508,2.77865 0.902342,1.80468 0.902342,4.36848 z m -11.945298,0 q 0,1.89062 0.501301,3.27995 0.501302,1.38932 1.546873,2.14843 1.045572,0.75911 2.692706,0.75911 1.63281,0 2.678382,-0.75911 1.059894,-0.75911 1.561196,-2.14843 0.501301,-1.38933 0.501301,-3.27995 0,-1.8763 -0.501301,-3.23697 -0.501302,-1.375 -1.546873,-2.11979 -1.045572,-0.74479 -2.707028,-0.74479 -2.449216,0 -3.595048,1.61848 -1.131509,1.61849 -1.131509,4.48307 z"
           style="font-family:'Open Sans';-inkscape-font-specification:'Open Sans'"
           id="path14810" />
        <path
           d="m 62.195266,194.08643 q 0.472656,0 0.98828,0.0573 0.515624,0.043 0.916666,0.12891 l -0.300781,2.20572 q -0.386719,-0.10026 -0.859374,-0.15755 -0.472656,-0.0573 -0.88802,-0.0573 -0.945312,0 -1.790363,0.38672 -0.830728,0.37239 -1.460936,1.08854 -0.630207,0.70182 -0.98828,1.70442 -0.358072,0.98828 -0.358072,2.20573 v 8.42187 h -2.391924 v -15.6979 h 1.97656 l 0.257812,2.89322 h 0.10026 q 0.486979,-0.87369 1.174478,-1.58984 0.687499,-0.73047 1.589842,-1.16015 0.916666,-0.42969 2.033852,-0.42969 z"
           style="font-family:'Open Sans';-inkscape-font-specification:'Open Sans'"
           id="path14812" />
        <path
           d="m 69.428329,187.78435 v 6.66015 q 0,0.57292 -0.02865,1.16016 -0.02865,0.57291 -0.10026,1.05989 h 0.157552 q 0.486978,-0.83073 1.231769,-1.38932 0.759114,-0.57292 1.718748,-0.85937 0.959635,-0.30078 2.033852,-0.30078 1.890623,0 3.151038,0.60156 1.274738,0.60156 1.904946,1.86197 0.64453,1.26042 0.64453,3.26563 v 10.22655 h -2.348955 v -10.069 q 0,-1.96224 -0.902343,-2.9362 -0.88802,-0.97395 -2.735674,-0.97395 -1.747394,0 -2.792966,0.67317 -1.031248,0.65886 -1.489581,1.94792 -0.44401,1.28906 -0.44401,3.15103 v 8.20703 h -2.377601 v -22.28644 z"
           style="font-family:'Open Sans';-inkscape-font-specification:'Open Sans'"
           id="path14814" />
        <path
           d="m 90.91268,194.11508 q 2.807288,0 4.167964,1.26041 1.360675,1.26042 1.360675,4.02474 v 10.67056 h -1.733071 l -0.458333,-2.32031 h -0.114583 q -0.658853,0.85937 -1.374998,1.44661 -0.716145,0.57292 -1.661457,0.8737 -0.930988,0.28645 -2.291664,0.28645 -1.43229,0 -2.549476,-0.5013 -1.102863,-0.5013 -1.747394,-1.51822 -0.630207,-1.01693 -0.630207,-2.57813 0,-2.34895 1.861977,-3.60937 1.861977,-1.26041 5.671868,-1.375 l 2.707028,-0.11458 v -0.95963 q 0,-2.03386 -0.873697,-2.85026 -0.873697,-0.81641 -2.463539,-0.81641 -1.231769,0 -2.348955,0.35808 -1.117186,0.35807 -2.119789,0.84505 l -0.730468,-1.80469 q 1.059894,-0.54427 2.434893,-0.93099 1.374998,-0.38671 2.893226,-0.38671 z m 3.179683,8.22134 -2.391924,0.10026 q -2.936194,0.11458 -4.139318,0.95963 -1.203124,0.84506 -1.203124,2.39193 0,1.34635 0.816406,1.99088 0.816405,0.64453 2.162758,0.64453 2.091143,0 3.423173,-1.16015 1.332029,-1.16016 1.332029,-3.48047 z"
           style="font-family:'Open Sans';-inkscape-font-specification:'Open Sans'"
           id="path14816" />
        <path
           d="m 108.77334,194.08643 q 2.79296,0 4.22525,1.375 1.43229,1.36067 1.43229,4.38281 v 10.22655 h -2.34895 v -10.069 q 0,-1.96224 -0.90235,-2.9362 -0.88802,-0.97395 -2.73567,-0.97395 -2.60677,0 -3.66666,1.47525 -1.0599,1.47526 -1.0599,4.28255 v 8.22135 h -2.3776 v -15.6979 h 1.91927 l 0.35807,2.26302 h 0.12891 q 0.5013,-0.83073 1.27474,-1.38933 0.77343,-0.57291 1.73307,-0.85937 0.95963,-0.30078 2.01953,-0.30078 z"
           style="font-family:'Open Sans';-inkscape-font-specification:'Open Sans'"
           id="path14818" />
        <path
           d="m 124.91525,210.35724 q -2.97917,0 -4.72656,-2.03385 -1.73307,-2.03385 -1.73307,-6.04426 0,-4.05338 1.77604,-6.11588 1.77604,-2.07682 4.72655,-2.07682 1.2461,0 2.17709,0.32943 0.93098,0.32942 1.60416,0.88802 0.67318,0.54427 1.13151,1.24609 h 0.17187 q -0.0573,-0.44401 -0.11458,-1.21745 -0.0573,-0.77343 -0.0573,-1.26041 v -6.28776 h 2.3776 v 22.28644 h -1.91927 l -0.35807,-2.23438 h -0.10026 q -0.44401,0.70183 -1.13151,1.27474 -0.67318,0.57292 -1.61849,0.91667 -0.93099,0.32942 -2.20572,0.32942 z m 0.37239,-1.97656 q 2.52083,0 3.5664,-1.43229 1.04558,-1.43229 1.04558,-4.2539 v -0.42968 q 0,-2.99349 -1.00261,-4.59766 -0.98828,-1.60416 -3.60937,-1.60416 -2.1914,0 -3.27994,1.6901 -1.08854,1.67578 -1.08854,4.58333 0,2.89323 1.07421,4.46875 1.08854,1.57551 3.29427,1.57551 z"
           style="font-family:'Open Sans';-inkscape-font-specification:'Open Sans'"
           id="path14820" />
        <path
           d="m 143.32017,194.08643 q 2.00521,0 3.4375,0.88802 1.43229,0.88802 2.1914,2.49218 0.75912,1.58985 0.75912,3.72396 v 1.47526 h -10.84244 q 0.043,2.76432 1.375,4.21093 1.33203,1.44661 3.7526,1.44661 1.48958,0 2.63541,-0.27213 1.14583,-0.27214 2.3776,-0.80208 v 2.09114 q -1.1888,0.52995 -2.36327,0.77344 -1.16016,0.24348 -2.75,0.24348 -2.26302,0 -3.95312,-0.91666 -1.67578,-0.93099 -2.60677,-2.72135 -0.93099,-1.79036 -0.93099,-4.38281 0,-2.53515 0.84505,-4.38281 0.85938,-1.86197 2.40625,-2.86458 1.5612,-1.0026 3.66666,-1.0026 z m -0.0286,1.94791 q -1.90495,0 -3.03646,1.2461 -1.13151,1.24609 -1.34635,3.48046 h 8.30728 q -0.0143,-1.40364 -0.44401,-2.46354 -0.41536,-1.07422 -1.27474,-1.66145 -0.85937,-0.60157 -2.20572,-0.60157 z"
           style="font-family:'Open Sans';-inkscape-font-specification:'Open Sans'"
           id="path14822" />
        <path
           d="m 161.18083,194.08643 q 2.79297,0 4.22526,1.375 1.43229,1.36067 1.43229,4.38281 v 10.22655 h -2.34896 v -10.069 q 0,-1.96224 -0.90234,-2.9362 -0.88802,-0.97395 -2.73568,-0.97395 -2.60676,0 -3.66666,1.47525 -1.05989,1.47526 -1.05989,4.28255 v 8.22135 h -2.3776 v -15.6979 h 1.91926 l 0.35808,2.26302 h 0.1289 q 0.5013,-0.83073 1.27474,-1.38933 0.77344,-0.57291 1.73307,-0.85937 0.95964,-0.30078 2.01953,-0.30078 z"
           style="font-family:'Open Sans';-inkscape-font-specification:'Open Sans'"
           id="path14824" />
      </g>
    </g>
  </g>
</svg>
